<?xml version="1.0" standalone="no"?>
<!DOCTYPE svg PUBLIC "-//W3C//DTD SVG 20010904//EN"
 "http://www.w3.org/TR/2001/REC-SVG-20010904/DTD/svg10.dtd">
<svg version="1.0" xmlns="http://www.w3.org/2000/svg"
 width="512.000000pt" height="512.000000pt" viewBox="0 0 512.000000 512.000000"
 preserveAspectRatio="xMidYMid meet">
<metadata>
Created by potrace 1.11, written by Peter Selinger 2001-2013
</metadata>
<g transform="translate(0.000000,512.000000) scale(0.100000,-0.100000)"
fill="#000000" stroke="none">
<path d="M3565 4376 c-118 -54 -130 -200 -23 -279 30 -23 96 -30 137 -16 109
38 140 181 56 265 -38 39 -120 53 -170 30z"/>
<path d="M3275 3789 c-51 -24 -82 -59 -94 -107 -27 -97 39 -189 141 -197 108
-8 193 103 158 209 -12 37 -71 96 -95 96 -21 0 -27 1 -50 10 -14 5 -35 1 -60
-11z"/>
<path d="M3870 3793 c-65 -26 -112 -100 -106 -164 14 -148 202 -197 288 -77
18 26 23 46 23 90 -1 61 -17 94 -66 130 -25 19 -112 32 -139 21z"/>
<path d="M2965 3190 c-54 -27 -77 -62 -82 -122 -7 -98 57 -172 150 -172 164 0
223 211 81 291 -49 28 -97 29 -149 3z"/>
<path d="M3572 3202 c-37 -11 -91 -71 -98 -109 -9 -46 1 -102 24 -133 29 -39
91 -70 132 -65 19 2 41 4 47 4 25 2 92 72 99 104 17 75 9 106 -38 158 -40 44
-101 59 -166 41z"/>
<path d="M4134 3185 c-115 -69 -95 -240 33 -283 68 -23 159 15 190 79 69 142
-87 286 -223 204z"/>
<path d="M2037 2943 c-3 -3 -30 -6 -59 -8 -127 -8 -265 -47 -391 -112 -111
-57 -298 -161 -314 -175 -7 -6 -13 -8 -13 -4 0 3 -25 -10 -55 -29 -30 -19 -56
-35 -58 -35 -5 0 -125 -66 -202 -110 -40 -23 -41 -24 -438 -24 l-399 -1 -24
-28 c-42 -49 -25 -115 33 -134 16 -5 208 -8 428 -8 l401 2 144 80 c80 44 170
94 200 111 30 16 118 65 195 107 302 168 354 186 559 191 76 1 148 -1 160 -6
13 -4 39 -11 59 -14 76 -12 173 -56 399 -180 24 -12 79 -42 123 -66 44 -24
103 -55 130 -70 28 -15 82 -45 120 -65 188 -101 232 -126 254 -146 37 -34 60
-96 57 -153 -5 -119 -72 -177 -257 -223 -62 -15 -227 -11 -296 7 -58 16 -201
65 -253 87 -8 3 -17 7 -20 7 -3 1 -18 6 -35 13 -66 26 -232 86 -256 93 -51 15
-113 -37 -104 -86 2 -11 4 -22 4 -25 3 -22 50 -50 141 -83 58 -20 112 -40 120
-43 8 -4 17 -7 20 -8 3 -1 12 -5 20 -8 48 -20 263 -97 300 -108 66 -18 102
-21 230 -22 187 -1 356 53 450 145 142 140 140 385 -4 529 -20 20 -89 64 -154
99 -64 35 -142 76 -172 93 -30 16 -77 42 -105 57 -27 15 -86 46 -130 70 -44
23 -102 55 -130 70 -283 156 -381 190 -580 206 -38 3 -75 7 -82 9 -6 2 -13 1
-16 -2z"/>
<path d="M4645 2624 c-41 -11 -428 -197 -445 -214 -3 -3 -101 -52 -218 -110
-117 -58 -222 -115 -233 -126 -48 -51 -16 -126 60 -140 7 -1 205 94 440 212
245 123 441 216 461 218 99 10 193 -76 195 -179 2 -74 -22 -106 -179 -240 -32
-27 -64 -55 -70 -60 -6 -6 -58 -51 -116 -100 -147 -126 -161 -139 -174 -150
-15 -14 -227 -197 -300 -260 -32 -27 -66 -57 -76 -65 -33 -29 -115 -99 -140
-120 -14 -12 -54 -47 -89 -78 -111 -99 -193 -161 -260 -196 -68 -35 -189 -79
-251 -91 -61 -11 -243 -14 -293 -5 -26 5 -71 12 -100 15 -29 3 -59 8 -67 10
-8 3 -35 7 -60 10 -25 2 -56 7 -70 10 -14 2 -45 7 -70 9 -25 3 -56 8 -70 11
-14 3 -43 8 -65 10 -66 7 -127 15 -180 25 -27 5 -75 12 -105 16 -30 3 -64 8
-74 10 -11 2 -56 8 -100 14 -45 6 -92 13 -106 15 -43 7 -243 37 -275 41 -16 2
-43 6 -60 8 -16 3 -52 8 -80 11 -27 4 -57 8 -65 10 -8 3 -33 7 -55 10 -69 9
-99 13 -145 20 -59 9 -98 -7 -114 -47 -27 -64 13 -112 100 -123 27 -3 60 -7
74 -9 22 -4 103 -16 214 -32 17 -3 49 -7 71 -9 22 -3 51 -7 65 -10 14 -3 45
-8 70 -11 25 -3 56 -7 70 -9 55 -10 79 -14 165 -25 50 -6 101 -14 115 -17 14
-3 36 -7 50 -8 27 -2 100 -13 140 -20 36 -7 106 -17 215 -31 11 -1 20 -3 20
-4 0 -1 22 -3 50 -6 27 -3 55 -10 62 -16 8 -6 13 -6 13 -1 0 6 26 5 68 -3 37
-7 92 -15 122 -19 30 -3 69 -9 85 -11 75 -13 106 -16 198 -18 210 -6 409 48
583 159 48 30 213 162 234 186 3 3 70 61 150 130 80 68 150 128 156 134 34 31
87 78 154 134 41 35 102 87 134 115 32 28 68 59 80 69 31 26 117 101 130 112
13 12 138 119 180 155 92 78 148 138 171 183 22 45 25 63 25 161 0 90 -4 117
-20 152 -71 146 -243 228 -395 188z"/>
<path d="M340 1209 c-70 -15 -93 -81 -46 -136 l24 -28 250 0 251 0 25 24 c34
32 35 80 3 117 l-24 27 -226 1 c-124 1 -240 -2 -257 -5z"/>
</g>
</svg>
